<?xml version="1.0" encoding="UTF-8"?>
<svg version="1.1" xmlns="http://www.w3.org/2000/svg" width="512" height="512">
<path d="M0 0 C9.9 0 19.8 0 30 0 C30 7.59 30 15.18 30 23 C38.25 23 46.5 23 55 23 C55 33.23 55 43.46 55 54 C46.75 54 38.5 54 30 54 C30 66.54 30 79.08 30 92 C109.53 92 189.06 92 271 92 C271 230.6 271 369.2 271 512 C261.1 512 251.2 512 241 512 C241 494.51 241 477.02 241 459 C230.77 459 220.54 459 210 459 C210 476.49 210 493.98 210 512 C200.1 512 190.2 512 180 512 C180 494.51 180 477.02 180 459 C170.1 459 160.2 459 150 459 C150 476.49 150 493.98 150 512 C140.1 512 130.2 512 120 512 C120 494.51 120 477.02 120 459 C110.1 459 100.2 459 90 459 C90 476.49 90 493.98 90 512 C80.1 512 70.2 512 60 512 C60 494.51 60 477.02 60 459 C50.1 459 40.2 459 30 459 C30 476.49 30 493.98 30 512 C20.1 512 10.2 512 0 512 C0 494.51 0 477.02 0 459 C-9.9 459 -19.8 459 -30 459 C-30 476.49 -30 493.98 -30 512 C-39.9 512 -49.8 512 -60 512 C-60 494.51 -60 477.02 -60 459 C-69.9 459 -79.8 459 -90 459 C-90 476.49 -90 493.98 -90 512 C-99.9 512 -109.8 512 -120 512 C-120 494.51 -120 477.02 -120 459 C-129.9 459 -139.8 459 -150 459 C-150 476.49 -150 493.98 -150 512 C-159.9 512 -169.8 512 -180 512 C-180 494.51 -180 477.02 -180 459 C-190.23 459 -200.46 459 -211 459 C-211 476.49 -211 493.98 -211 512 C-220.9 512 -230.8 512 -241 512 C-241 373.4 -241 234.8 -241 92 C-161.47 92 -81.94 92 0 92 C0 79.46 0 66.92 0 54 C-8.25 54 -16.5 54 -25 54 C-25 43.77 -25 33.54 -25 23 C-16.75 23 -8.5 23 0 23 C0 15.41 0 7.82 0 0 Z " fill="#9E4C78" transform="translate(241,0)"/>
<path d="M0 0 C84.48 0 168.96 0 256 0 C256 128.37 256 256.74 256 389 C246.1 389 236.2 389 226 389 C226 371.51 226 354.02 226 336 C215.77 336 205.54 336 195 336 C195 353.49 195 370.98 195 389 C185.1 389 175.2 389 165 389 C165 371.51 165 354.02 165 336 C155.1 336 145.2 336 135 336 C135 353.49 135 370.98 135 389 C125.1 389 115.2 389 105 389 C105 371.51 105 354.02 105 336 C95.1 336 85.2 336 75 336 C75 353.49 75 370.98 75 389 C65.1 389 55.2 389 45 389 C45 371.51 45 354.02 45 336 C30.15 336 15.3 336 0 336 C0 310.59 0 285.18 0 259 C3.63 261.31 7.26 263.62 11 266 C17.74507871 269.76167851 24.15810013 271.36050675 31.875 271.25 C32.58188965 271.24105713 33.2887793 271.23211426 34.01708984 271.22290039 C46.63481924 270.94292548 58.42755326 266.45015988 68 258 C75.71401665 249.50716436 81.04236904 238.61356173 81.375 227.125 C81.8855395 219.04145785 83.48180559 214.05119662 89.5 208.5625 C94.06079607 204.75838146 98.76549316 204.6464052 104.53515625 204.72265625 C109.57752574 205.29002271 112.55544265 208.35172291 115.75 212 C119.52307167 217.03076223 120.19220719 219.89347444 120.3125 226.25 C121.14071418 245.53587519 129.84703653 262.99302548 144 276 C147.51281028 278.67012776 151.12253892 280.90134523 155 283 C155.88042969 283.48210937 156.76085937 283.96421875 157.66796875 284.4609375 C165.40358401 288.51014004 172.80416641 290.27540311 181.4375 291.125 C184.263125 291.41375 187.08875 291.7025 190 292 C190 282.1 190 272.2 190 262 C186.37 262 182.74 262 179 262 C167.72186995 258.41360077 158.47550713 251.23521913 153 240.6875 C150.75442955 235.84548873 149.93348209 231.92221025 149.76098633 226.56884766 C149.3233478 214.24808725 146.0587149 204.20579938 139 194 C138.56042969 193.36320313 138.12085938 192.72640625 137.66796875 192.0703125 C130.75422553 183.10436308 119.9407101 177.98922002 109 176 C93.98630282 174.30919062 81.60833307 177.30225639 69.50390625 186.7109375 C60.14850389 195.26361423 54.06524665 206.49610038 53.4375 219.1875 C53.38851562 220.35539063 53.33953125 221.52328125 53.2890625 222.7265625 C52.74862263 228.84667886 50.68096888 233.81896848 46.0625 237.9375 C40.19888888 241.88646259 35.04670136 243.17096521 28 242 C22.27391594 239.57399554 17.97788646 236.0114088 15.59765625 230.19921875 C14.18946961 225.01746008 13.89752041 220.48934438 16.10546875 215.50390625 C19.27063662 210.33611206 22.39443442 207.30228586 28 205 C29.98 205 31.96 205 34 205 C34 195.1 34 185.2 34 175 C20.28974461 176.37102554 11.2996334 180.46691106 0 188 C0 161.6 0 135.2 0 108 C2 109 2 109 2.82421875 111.3359375 C3.10910156 112.33882813 3.39398438 113.34171875 3.6875 114.375 C8.25014515 128.5867947 16.97688605 138.13110148 30 145 C44.10127497 151.91843803 59.35909248 151.90269835 74.25 147.0703125 C76.95002006 146.09373755 76.95002006 146.09373755 79.125 144.8046875 C81 144 81 144 82.921875 144.05859375 C86.00722045 145.45627844 87.91321928 147.63347793 90.25 150.0625 C91.58804688 151.44115234 91.58804688 151.44115234 92.953125 152.84765625 C93.62859375 153.55792969 94.3040625 154.26820313 95 155 C98.04332765 153.6415798 100.12309151 152.11536976 102.453125 149.7421875 C103.071875 149.11699219 103.690625 148.49179687 104.328125 147.84765625 C104.96234375 147.19667969 105.5965625 146.54570312 106.25 145.875 C106.8996875 145.21628906 107.549375 144.55757812 108.21875 143.87890625 C109.81711727 142.25703357 111.41061897 140.6306719 113 139 C108.47694451 133.63108837 108.47694451 133.63108837 103.625 128.5625 C102.75875 127.716875 101.8925 126.87125 101 126 C101.18175781 125.46632813 101.36351562 124.93265625 101.55078125 124.3828125 C101.80214844 123.63773437 102.05351562 122.89265625 102.3125 122.125 C102.55613281 121.40570313 102.79976563 120.68640625 103.05078125 119.9453125 C103.36402344 118.97335938 103.67726563 118.00140625 104 117 C104.24991699 116.27756104 104.49983398 115.55512207 104.75732422 114.81079102 C106.77116419 108.68079696 107.54730258 103.12903327 107.5 96.6875 C107.49141968 95.31392334 107.49141968 95.31392334 107.48266602 93.91259766 C107.27952095 86.15751778 105.70639181 79.86717264 102 73 C101.49210937 72.03835937 100.98421875 71.07671875 100.4609375 70.0859375 C93.15126509 57.51052952 82.01907963 49.72288663 68.41015625 45.125 C52.8865013 41.40552194 38.02228822 44.52614513 24.4296875 52.4453125 C11.85422858 60.49198878 4.50145028 73.67588521 1 88 C0.67 88 0.34 88 0 88 C0 58.96 0 29.92 0 0 Z " fill="#833047" transform="translate(256,123)"/>
<path d="M0 0 C9.9 0 19.8 0 30 0 C30 7.59 30 15.18 30 23 C38.25 23 46.5 23 55 23 C55 33.23 55 43.46 55 54 C46.75 54 38.5 54 30 54 C30 66.54 30 79.08 30 92 C109.53 92 189.06 92 271 92 C271 101.9 271 111.8 271 122 C102.04 122 -66.92 122 -241 122 C-241 112.1 -241 102.2 -241 92 C-161.47 92 -81.94 92 0 92 C0 79.46 0 66.92 0 54 C-8.25 54 -16.5 54 -25 54 C-25 43.77 -25 33.54 -25 23 C-16.75 23 -8.5 23 0 23 C0 15.41 0 7.82 0 0 Z " fill="#CDCDE5" transform="translate(241,0)"/>
<path d="M0 0 C9.60838641 7.54540933 15.29151399 16.81204198 19.125 28.3125 C19.25266002 30.51959984 19.35327186 32.72831634 19.4375 34.9375 C19.96238572 42.64377674 21.19809008 49.05314253 27.1875 54.3125 C32.54898248 57.96287105 37.81507346 58.05383017 44.125 57.3125 C48.87081864 55.63103445 52.09367872 52.97322784 54.625 48.625 C56.91093877 43.1818005 57.40077633 37.59790631 55.2421875 32.0390625 C52.42975217 27.02883003 49.35131924 24.60474528 44.125 22.3125 C42.145 21.9825 40.165 21.6525 38.125 21.3125 C38.125 11.4125 38.125 1.5125 38.125 -8.6875 C49.18888644 -8.6875 57.74515319 -6.08146436 67.00390625 -0.0546875 C68.99238479 1.22702058 70.99103981 2.29632848 73.125 3.3125 C73.85203125 2.73242188 73.85203125 2.73242188 74.59375 2.140625 C84.83473831 -5.81583515 92.85217757 -8.6875 106.125 -8.6875 C106.125 1.2125 106.125 11.1125 106.125 21.3125 C103.485 21.9725 100.845 22.6325 98.125 23.3125 C93.18369424 25.87817799 89.92888097 28.99206455 88.125 34.3125 C87.19075892 40.15627326 87.7517898 45.3960048 90.7421875 50.55078125 C93.89086312 54.56222957 97.55812158 56.85209165 102.5859375 57.75390625 C108.54203981 58.03796651 113.25658746 56.77222835 118.125 53.3125 C123.23752224 48.19997776 124.28373227 42.72844356 124.4375 35.6875 C125.23639936 23.02494515 131.12594676 11.99571149 140.2890625 3.24609375 C152.69194314 -6.89972557 165.45490155 -10.02469085 181.125 -8.6875 C193.05110238 -6.57321221 203.50431289 -0.66740861 211.2734375 8.65234375 C217.93342575 18.22080788 222.20104747 28.40836055 222.5 40.125 C223.0144529 51.89361918 227.36041764 61.35439066 235.88671875 69.5703125 C244.14721211 75.99994607 251.71537728 77.36617066 262.125 78.3125 C262.125 88.2125 262.125 98.1125 262.125 108.3125 C249.57393729 108.3125 240.21212723 107.19080015 229.125 101.3125 C228.28066406 100.8690625 227.43632812 100.425625 226.56640625 99.96875 C209.68123686 90.48565955 199.02312081 75.31242347 193.3125 57 C192.12894013 52.38749812 191.91608458 47.86086097 191.75 43.125 C191.50453701 36.72580225 190.62623893 32.06450433 186.125 27.3125 C181.19479519 22.84091889 178.2405251 22.00770137 171.7265625 22.1015625 C166.52518703 22.52329565 162.74280785 24.31843185 159.3125 28.1875 C155.83832764 33.15060338 154.94386411 36.7835788 154.8125 42.8125 C153.9846475 56.42924628 148.13691536 67.25410039 138.125 76.3125 C126.17973608 86.55912547 113.56087744 89.22551051 98.05957031 88.49169922 C90.34597337 87.77718885 83.72200416 83.75309902 77.31640625 79.6796875 C75.29858485 78.42079714 73.26889198 77.33805197 71.125 76.3125 C70.41537109 76.89257812 70.41537109 76.89257812 69.69140625 77.484375 C64.79046799 81.3439833 59.95716483 84.10790161 54.125 86.3125 C53.22136719 86.67085938 52.31773437 87.02921875 51.38671875 87.3984375 C40.45227939 90.46269955 27.32266646 89.000137 17.125 84.3125 C11.47037878 81.03468385 6.49887746 77.18624917 2.125 72.3125 C1.3 71.425625 0.475 70.53875 -0.375 69.625 C-6.70622127 61.87574494 -9.72850642 52.73803078 -10.25 42.875 C-10.74546586 35.56058034 -12.32881372 30.33146521 -17.875 25.375 C-23.10460842 21.77964421 -28.65494933 21.60388663 -34.875 22.3125 C-40.48067201 25.115336 -44.52684796 29.48225925 -46.875 35.3125 C-47.07201923 37.57822118 -47.18705176 39.85160022 -47.25 42.125 C-48.26135596 62.04993083 -56.36632731 78.85900351 -70.875 92.3125 C-85.08234646 104.01900854 -99.60981419 108.3125 -117.875 108.3125 C-117.875 98.4125 -117.875 88.5125 -117.875 78.3125 C-111.44 77.3225 -111.44 77.3225 -104.875 76.3125 C-95.03363191 72.97175451 -87.39145603 66.93886819 -82 58.0625 C-79.28063469 52.22625419 -79.10233845 46.11081394 -78.60302734 39.78271484 C-77.41066138 25.39088455 -71.58602068 12.2392841 -60.875 2.3125 C-42.63059012 -12.00775109 -19.19219414 -12.99691169 0 0 Z " fill="#FEDB01" transform="translate(183.875,306.6875)"/>
<path d="M0 0 C4.95 0 9.9 0 15 0 C15 40.26 15 80.52 15 122 C-69.48 122 -153.96 122 -241 122 C-241 112.1 -241 102.2 -241 92 C-161.47 92 -81.94 92 0 92 C0 79.46 0 66.92 0 54 C-8.25 54 -16.5 54 -25 54 C-25 43.77 -25 33.54 -25 23 C-16.75 23 -8.5 23 0 23 C0 15.41 0 7.82 0 0 Z " fill="#EBE5F1" transform="translate(241,0)"/>
<path d="M0 0 C0 9.9 0 19.8 0 30 C-2.64 30.66 -5.28 31.32 -8 32 C-12.94130576 34.56567799 -16.19611903 37.67956455 -18 43 C-18.93424108 48.84377326 -18.3732102 54.0835048 -15.3828125 59.23828125 C-12.23413688 63.24972957 -8.56687842 65.53959165 -3.5390625 66.44140625 C2.41703981 66.72546651 7.13158746 65.45972835 12 62 C17.11252224 56.88747776 18.15873227 51.41594356 18.3125 44.375 C19.11139936 31.71244515 25.00094676 20.68321149 34.1640625 11.93359375 C46.56694314 1.78777443 59.32990155 -1.33719085 75 0 C86.92610238 2.11428779 97.37931289 8.02009139 105.1484375 17.33984375 C111.80842575 26.90830788 116.07604747 37.09586055 116.375 48.8125 C116.8894529 60.58111918 121.23541764 70.04189066 129.76171875 78.2578125 C138.02221211 84.68744607 145.59037728 86.05367066 156 87 C156 96.9 156 106.8 156 117 C143.44893729 117 134.08712723 115.87830015 123 110 C122.15566406 109.5565625 121.31132812 109.113125 120.44140625 108.65625 C103.55623686 99.17315955 92.89812081 83.99992347 87.1875 65.6875 C86.00394013 61.07499812 85.79108458 56.54836097 85.625 51.8125 C85.37953701 45.41330225 84.50123893 40.75200433 80 36 C75.06979519 31.52841889 72.1155251 30.69520137 65.6015625 30.7890625 C60.40018703 31.21079565 56.61780785 33.00593185 53.1875 36.875 C49.71332764 41.83810338 48.81886411 45.4710788 48.6875 51.5 C47.8596475 65.11674628 42.01191536 75.94160039 32 85 C20.05473608 95.24662547 7.43587744 97.91301051 -8.06542969 97.17919922 C-17.07159025 96.3449587 -25.4474245 91.05819693 -32.60064697 85.83013916 C-34.71954179 83.05894968 -34.42604818 80.70652066 -34.48339844 77.25292969 C-34.50574051 76.23038338 -34.50574051 76.23038338 -34.52853394 75.18717957 C-34.57234441 72.93198547 -34.59279524 70.67742471 -34.609375 68.421875 C-34.62663745 66.85109445 -34.64391055 65.28031401 -34.66119385 63.70953369 C-34.69271054 60.41423606 -34.71024557 57.1191576 -34.72070312 53.82373047 C-34.73713489 49.61161977 -34.80915415 45.4024305 -34.89461899 41.19123459 C-34.95065687 37.94482137 -34.96612279 34.69910351 -34.97071075 31.45224762 C-34.97976127 29.90044471 -35.00375175 28.34865127 -35.0432663 26.79732513 C-35.32920836 14.70561091 -35.32920836 14.70561091 -32.0748291 10.52966309 C-29.78726208 8.7100582 -27.60018963 7.32484785 -25 6 C-23.89516266 5.37421051 -23.89516266 5.37421051 -22.76800537 4.73577881 C-15.08490225 0.48115053 -8.98776624 0 0 0 Z " fill="#FDB917" transform="translate(290,298)"/>
<path d="M0 0 C10.19604897 8.44129128 18.54163009 20.73286662 20.15795898 34.13134766 C20.29612098 36.73119158 20.3261278 39.30299029 20.296875 41.90625 C20.28986572 43.28115601 20.28986572 43.28115601 20.28271484 44.68383789 C20.11788462 52.29483994 18.67933214 58.56518989 15.859375 65.65625 C15.199375 67.63625 14.539375 69.61625 13.859375 71.65625 C17.819375 75.61625 21.779375 79.57625 25.859375 83.65625 C20.58836086 90.06694287 14.76809348 95.84215512 8.859375 101.65625 C4.18515462 99.73780581 1.48082474 96.15293206 -1.82421875 92.45703125 C-3.97362132 90.38517366 -3.97362132 90.38517366 -6.58203125 90.76171875 C-7.42636719 91.05691406 -8.27070313 91.35210937 -9.140625 91.65625 C-10.0378125 91.965625 -10.935 92.275 -11.859375 92.59375 C-12.7771875 92.944375 -13.695 93.295 -14.640625 93.65625 C-25.60853664 97.84623872 -40.11548364 98.9242764 -51.328125 94.96875 C-52.9519744 94.2402942 -54.55853254 93.47142984 -56.140625 92.65625 C-56.90117187 92.305625 -57.66171875 91.955 -58.4453125 91.59375 C-71.0407979 85.3177988 -80.60561509 74.24458217 -85.36328125 61.07421875 C-89.7418547 47.45443499 -89.58554684 33.39915948 -83.59375 20.265625 C-75.29054974 4.17358202 -63.44502728 -4.6872092 -46.390625 -10.65625 C-30.05318322 -14.13799989 -13.2303433 -9.87339052 0 0 Z " fill="#FDB917" transform="translate(344.140625,177.34375)"/>
<path d="M0 0 C49.28839286 0 49.28839286 0 61.5625 11.0625 C68.60760805 18.49900294 70.79254816 26.63552183 70.65771484 36.6496582 C70.14564615 46.08499806 66.33618699 53.15896188 59.5 59.625 C56.18842156 62.32581355 53.25673457 64.12682368 49 65 C51.75205944 69.34400015 54.77736822 73.13340128 58.3125 76.875 C59.28971811 77.92517157 60.26628033 78.97595384 61.2421875 80.02734375 C61.71366211 80.53378418 62.18513672 81.04022461 62.67089844 81.56201172 C66.97111757 86.21452654 71.09943328 91.00727459 75 96 C73.42432234 99.9948063 70.79864856 102.24195175 67.625 105.0625 C66.66851562 105.91972656 65.71203125 106.77695312 64.7265625 107.66015625 C62.53649528 109.53959789 60.33727991 111.31073371 58 113 C54.0316583 111.43671388 51.58418809 108.67887426 48.8125 105.5625 C48.33127686 105.02971436 47.85005371 104.49692871 47.35424805 103.94799805 C43.5489258 99.7005324 39.91461686 95.3255807 36.36328125 90.86328125 C33.02087836 86.81372535 29.4884201 82.92447261 26 79 C25.67 88.9 25.34 98.8 25 109 C16.75 109 8.5 109 0 109 C0 73.03 0 37.06 0 0 Z " fill="#FDB917" transform="translate(384,166)"/>
<path d="M0 0 C51.03731168 0 51.03731168 0 62.0625 10.76171875 C69.35033201 19.18092791 72.6435077 27.92430236 72.3671875 39.0078125 C71.07202294 49.56202584 66.03593754 58.1614295 58 65 C46.40766845 72.68639034 40.28244927 72 25 72 C25 84.21 25 96.42 25 109 C16.75 109 8.5 109 0 109 C0 73.03 0 37.06 0 0 Z " fill="#FDDB01" transform="translate(166,166)"/>
<path d="M0 0 C1.20079639 0.87793032 2.39449633 1.76639141 3.5625 2.6875 C1.54905485 7.01927834 -1.27849497 10.27775218 -4.375 13.875 C-4.91318359 14.51630859 -5.45136719 15.15761719 -6.00585938 15.81835938 C-6.52857422 16.42873047 -7.05128906 17.03910156 -7.58984375 17.66796875 C-8.06413818 18.22379639 -8.53843262 18.77962402 -9.02709961 19.35229492 C-10.4375 20.6875 -10.4375 20.6875 -13.4375 21.6875 C-15.85546875 20.91015625 -15.85546875 20.91015625 -18.625 19.75 C-24.3821966 17.54916691 -28.80861996 16.66396973 -34.875 18.375 C-37.06990305 20.21871856 -37.14510214 21.90972034 -37.4375 24.6875 C-30.34227888 28.38571667 -23.04121984 31.3063126 -15.5703125 34.15625 C-4.48851942 38.54599075 5.01800929 45.40983307 10 56.5625 C12.85087759 64.63381577 12.30463813 71.5319611 8.8203125 79.3046875 C5.08760014 86.37597489 0.38309803 91.50353968 -6.4375 95.6875 C-7.09621094 96.10257812 -7.75492187 96.51765625 -8.43359375 96.9453125 C-18.40139351 102.02693591 -33.40229607 101.29818567 -43.9375 98.25 C-55.72295116 93.4485199 -64.45011551 85.33366411 -72.4375 75.6875 C-71.06376924 72.57359666 -69.51187421 70.55253021 -67.03125 68.234375 C-66.36996094 67.615625 -65.70867187 66.996875 -65.02734375 66.359375 C-63.99287109 65.40804687 -63.99287109 65.40804687 -62.9375 64.4375 C-62.24785156 63.7878125 -61.55820313 63.138125 -60.84765625 62.46875 C-55.69475446 57.6875 -55.69475446 57.6875 -53.4375 57.6875 C-51.95703125 59.2265625 -51.95703125 59.2265625 -50.25 61.3125 C-44.92274916 67.55900618 -39.8422308 73.17244521 -31.28125 73.98828125 C-30.1778125 73.99214844 -29.074375 73.99601562 -27.9375 74 C-26.28234375 74.02513672 -26.28234375 74.02513672 -24.59375 74.05078125 C-20.82191664 73.61664697 -18.14258899 72.39258899 -15.4375 69.6875 C-14.85307037 66.81512267 -14.85307037 66.81512267 -15.4375 63.6875 C-20.17871182 59.85776509 -25.53417818 57.89932746 -31.1875 55.75 C-56.16072825 45.99486803 -56.16072825 45.99486803 -62.75 31.875 C-64.62306347 23.19079666 -63.85702653 15.44678238 -59.4375 7.6875 C-54.00196576 -0.38740422 -46.70017772 -4.93562365 -37.50390625 -7.9453125 C-24.20072273 -10.30920522 -11.25715785 -7.41668772 0 0 Z " fill="#FDDB01" transform="translate(130.4375,174.3125)"/>
<path d="M0 0 C6.28778836 4.04039525 10.19650737 9.77995301 12.62890625 16.8203125 C13.16612078 19.97574098 13.09210524 23.05263432 13.0625 26.25 C13.05347656 27.51328125 13.04445313 28.7765625 13.03515625 30.078125 C13.02355469 31.04234375 13.01195312 32.0065625 13 33 C10 33 10 33 7.87890625 30.99609375 C6.3345108 29.29022694 4.79284064 27.58188884 3.25390625 25.87109375 C2.51011719 25.25363281 1.76632812 24.63617188 1 24 C-2.43383804 24.33097234 -4.09814188 25.73975693 -6.453125 28.16015625 C-7.071875 28.78857422 -7.690625 29.41699219 -8.328125 30.06445312 C-8.96234375 30.72380859 -9.5965625 31.38316406 -10.25 32.0625 C-10.8996875 32.72572266 -11.549375 33.38894531 -12.21875 34.07226562 C-13.8194676 35.70829317 -15.41276193 37.35090912 -17 39 C-15.30413874 42.63303084 -13.26199512 44.94549046 -10.375 47.75 C-9.55773437 48.54921875 -8.74046875 49.3484375 -7.8984375 50.171875 C-7.27195312 50.77515625 -6.64546875 51.3784375 -6 52 C-8.48490868 54.48490868 -10.05709028 54.30645571 -13.45922852 54.38037109 C-26.21072991 54.34874749 -26.21072991 54.34874749 -32 50 C-32.91652344 49.38125 -32.91652344 49.38125 -33.8515625 48.75 C-40.26108711 43.94967519 -43.78168319 36.83906877 -45 29 C-45.83559283 20.72626119 -44.31932648 14.524893 -39.38671875 7.80078125 C-29.04007026 -4.61060863 -14.37547097 -8.01133017 0 0 Z " fill="#843147" transform="translate(326,195)"/>
<path d="M0 0 C4.95 0 9.9 0 15 0 C15 7.59 15 15.18 15 23 C23.25 23 31.5 23 40 23 C40 33.23 40 43.46 40 54 C31.75 54 23.5 54 15 54 C15 66.54 15 79.08 15 92 C10.05 92 5.1 92 0 92 C0 61.64 0 31.28 0 0 Z " fill="#A2A8CB" transform="translate(256,0)"/>
<path d="M0 0 C4.95 0 9.9 0 15 0 C15 30.36 15 60.72 15 92 C10.05 92 5.1 92 0 92 C0 79.46 0 66.92 0 54 C-8.25 54 -16.5 54 -25 54 C-25 43.77 -25 33.54 -25 23 C-16.75 23 -8.5 23 0 23 C0 15.41 0 7.82 0 0 Z " fill="#CECEE4" transform="translate(241,0)"/>
<path d="M0 0 C9.9 0 19.8 0 30 0 C30 17.49 30 34.98 30 53 C20.1 53 10.2 53 0 53 C0 35.51 0 18.02 0 0 Z " fill="#FFBB17" transform="translate(482,459)"/>
<path d="M0 0 C9.9 0 19.8 0 30 0 C30 17.49 30 34.98 30 53 C20.1 53 10.2 53 0 53 C0 35.51 0 18.02 0 0 Z " fill="#FFBB17" transform="translate(421,459)"/>
<path d="M0 0 C9.9 0 19.8 0 30 0 C30 17.49 30 34.98 30 53 C20.1 53 10.2 53 0 53 C0 35.51 0 18.02 0 0 Z " fill="#FFBB17" transform="translate(361,459)"/>
<path d="M0 0 C9.9 0 19.8 0 30 0 C30 17.49 30 34.98 30 53 C20.1 53 10.2 53 0 53 C0 35.51 0 18.02 0 0 Z " fill="#FFBB17" transform="translate(301,459)"/>
<path d="M0 0 C9.9 0 19.8 0 30 0 C30 17.49 30 34.98 30 53 C20.1 53 10.2 53 0 53 C0 35.51 0 18.02 0 0 Z " fill="#FFBB17" transform="translate(241,459)"/>
<path d="M0 0 C9.9 0 19.8 0 30 0 C30 17.49 30 34.98 30 53 C20.1 53 10.2 53 0 53 C0 35.51 0 18.02 0 0 Z " fill="#FFDD00" transform="translate(181,459)"/>
<path d="M0 0 C9.9 0 19.8 0 30 0 C30 17.49 30 34.98 30 53 C20.1 53 10.2 53 0 53 C0 35.51 0 18.02 0 0 Z " fill="#FFDD00" transform="translate(121,459)"/>
<path d="M0 0 C9.9 0 19.8 0 30 0 C30 17.49 30 34.98 30 53 C20.1 53 10.2 53 0 53 C0 35.51 0 18.02 0 0 Z " fill="#FFDD00" transform="translate(61,459)"/>
<path d="M0 0 C9.9 0 19.8 0 30 0 C30 17.49 30 34.98 30 53 C20.1 53 10.2 53 0 53 C0 35.51 0 18.02 0 0 Z " fill="#FFDD00" transform="translate(0,459)"/>
<path d="M0 0 C4.95 0 9.9 0 15 0 C15 17.49 15 34.98 15 53 C10.05 53 5.1 53 0 53 C0 35.51 0 18.02 0 0 Z " fill="#FFDD00" transform="translate(241,459)"/>
<path d="M0 0 C14.48782138 -0.44350474 14.48782138 -0.44350474 19 3 C21.1979747 5.71083547 21.92397877 7.48957172 22.4375 10.9375 C21.87236169 14.89346816 20.56163859 16.95372709 18 20 C12.26471535 23.00900498 6.31853019 22.12764707 0 22 C0 14.74 0 7.48 0 0 Z " fill="#9F4E77" transform="translate(191,191)"/>
<path d="M0 0 C14.19642857 -0.66964286 14.19642857 -0.66964286 17.875 2 C20.82360163 6.16273171 20.7975483 7.97544571 20 13 C17.78594158 16.00479357 15.43243618 17.61749098 12 19 C7.98216016 19.26022279 4.0314117 19.08763938 0 19 C0 12.73 0 6.46 0 0 Z " fill="#893745" transform="translate(409,191)"/>
</svg>
