<?xml version="1.0" encoding="UTF-8"?>
<svg version="1.1" xmlns="http://www.w3.org/2000/svg" width="512" height="512">
    <path d="M0 0 C67.65 0 135.3 0 205 0 C205 6.6 205 13.2 205 20 C201.68869795 21.02485266 198.37624163 22.04558034 195.0625 23.0625 C194.0422876 23.37614502 193.0220752 23.68979004 191.97094727 24.01293945 C186.37346664 25.71885046 180.76637201 27.35613604 175.1171875 28.8828125 C174.00077881 29.18566162 172.88437012 29.48851074 171.73413086 29.80053711 C169.57602394 30.38117863 167.41543 30.9526726 165.25219727 31.51391602 C158.52429646 33.32743854 153.32144433 35.04040627 148.87301302 40.71168137 C146.74920416 44.44030481 146.49899181 46.52441192 146.49663544 50.78106689 C146.49082167 51.44128137 146.48500791 52.10149585 146.47901797 52.78171682 C146.46443099 54.99189588 146.47829581 57.20096205 146.49206543 59.41113281 C146.48745597 61.0124633 146.48110274 62.61378956 146.47315645 64.21510696 C146.45644613 68.61389295 146.46471718 73.01233217 146.47710133 77.41111946 C146.48614253 82.15557337 146.47218671 86.89996717 146.46118164 91.64440918 C146.4433819 100.93815074 146.44724289 110.23176319 146.4588322 119.52550983 C146.46786053 127.07776767 146.46909313 134.62998929 146.46473694 142.18225098 C146.46381754 143.7936933 146.46381754 143.7936933 146.46287957 145.43769002 C146.46160069 147.62000244 146.46030383 149.80231485 146.4589892 151.98462725 C146.44757914 172.45501865 146.4607038 192.92533844 146.48219067 213.3957181 C146.50006203 230.96567085 146.49695804 248.5355179 146.47851562 266.10546875 C146.45711645 286.50189836 146.44867782 306.89826517 146.46096468 327.29470444 C146.4622389 329.46905262 146.46349638 331.64340082 146.46473694 333.81774902 C146.46535404 334.88760961 146.46597114 335.95747019 146.46660694 337.0597508 C146.4700627 344.60418023 146.46422663 352.14856989 146.45481873 359.69299316 C146.44360796 368.88536286 146.44661939 378.0775959 146.4679417 387.26994991 C146.47846452 391.96132874 146.48255298 396.6524796 146.46934509 401.34385681 C146.45744085 405.63707237 146.46395108 409.92984831 146.4852553 414.22302389 C146.48972974 415.77744534 146.48743623 417.3319038 146.47775215 418.88630152 C146.46560518 420.99770835 146.47804336 423.1076053 146.49663544 425.21893311 C146.49728485 426.39205425 146.49793426 427.5651754 146.49860334 428.77384567 C147.29764995 433.91517963 149.83999509 436.99491947 153.70375061 440.34265137 C157.90553491 442.45530142 161.10592169 442.56450097 165.73999023 442.51757812 C166.59769012 442.5245874 167.45539001 442.53159668 168.33908081 442.53881836 C171.16258523 442.5563634 173.98507987 442.54478708 176.80859375 442.53125 C178.77865287 442.53394617 180.74871069 442.53782963 182.71876526 442.54284668 C186.84364517 442.54873721 190.96817808 442.54019396 195.09301758 442.52148438 C200.3701186 442.4987102 205.64640515 442.51181115 210.92347622 442.53577423 C214.99081004 442.55025698 219.0579521 442.54561459 223.12529182 442.53526306 C225.07047689 442.53260185 227.01567957 442.53584417 228.96084404 442.54518127 C231.68456722 442.555386 234.40698855 442.53979071 237.13061523 442.51757812 C238.32704903 442.52972351 238.32704903 442.52972351 239.5476532 442.54211426 C245.13123787 442.45812126 248.44312887 441.28662632 253 438 C257.96473225 431.51000899 260.08204083 422.42320845 262.58984375 414.75390625 C263.01505013 413.47170937 263.44090402 412.18972708 263.86735535 410.90794373 C264.99948582 407.4987383 266.12223186 404.08651254 267.24308014 400.67358398 C268.40823184 397.13144294 269.58246863 393.59231467 270.75537109 390.05273438 C275.00269666 377.22298136 279.21145464 364.38073248 283.38671875 351.52734375 C283.71274582 350.52385391 284.03877289 349.52036407 284.37467957 348.48646545 C285.86466968 343.89624099 287.34930715 339.30439909 288.82397461 334.70922852 C289.22136589 333.4769326 289.22136589 333.4769326 289.62678528 332.21974182 C290.10793332 330.72750991 290.58655795 329.23446026 291.06181335 327.74034119 C292.48557062 323.33448923 294.16098411 319.29103708 296 315 C302.6 315 309.2 315 316 315 C317.14383124 330.36546636 317.07150164 340.06499795 307.34277344 352.16650391 C293.00009858 371.75077448 289.61938689 399.21160126 292.3046875 422.66064453 C294.98923624 439.75067356 302.22023586 457.56320198 312.78125 471.3203125 C314 473 314 473 313.8125 475.1875 C313 477 313 477 311 478 C309.30107648 478.09409149 307.59842901 478.12373227 305.89690208 478.12304783 C304.80958396 478.12503888 303.72226584 478.12702993 302.60199869 478.12908131 C301.39773945 478.12616847 300.19348021 478.12325563 298.95272827 478.12025452 C297.68103464 478.12110894 296.409341 478.12196337 295.0991112 478.12284368 C291.55772916 478.12508818 288.01637716 478.12106797 284.47499895 478.11606562 C280.66041086 478.11176066 276.84582457 478.11320758 273.03123474 478.1139679 C266.41835502 478.1144931 259.80548513 478.11134665 253.19260788 478.10573006 C243.63141236 478.09761461 234.07022162 478.09499979 224.50902303 478.09374207 C208.99787463 478.09155162 193.48673148 478.08489172 177.97558594 478.07543945 C162.90494818 478.06626515 147.83431186 478.05918441 132.76367188 478.05493164 C131.8352417 478.05466892 130.90681152 478.05440619 129.95024709 478.05413551 C125.29274221 478.0528305 120.63523732 478.05156679 115.97773242 478.05032361 C77.31848457 478.03995122 38.65924271 478.02225893 0 478 C0 471.4 0 464.8 0 458 C3.31130205 456.97514734 6.62375837 455.95441966 9.9375 454.9375 C11.4678186 454.46703247 11.4678186 454.46703247 13.02905273 453.98706055 C18.62653336 452.28114954 24.23362799 450.64386396 29.8828125 449.1171875 C31.55742554 448.66291382 31.55742554 448.66291382 33.26586914 448.19946289 C35.42397606 447.61882137 37.58457 447.0473274 39.74780273 446.48608398 C46.87267675 444.56555634 52.94502275 442.61601552 57 436 C58.11885317 432.64344048 58.12767159 430.12657373 58.13142776 426.58807659 C58.13450672 425.60294718 58.13450672 425.60294718 58.13764787 424.59791616 C58.14333381 422.38180242 58.14185866 420.16575051 58.14044189 417.94963074 C58.14302461 416.35089446 58.14603751 414.75215882 58.1494453 413.15342408 C58.15752944 408.74797194 58.15930565 404.34253608 58.16004276 399.9370774 C58.16189085 395.19054531 58.16943692 390.44402171 58.17617798 385.69749451 C58.18977162 375.3133041 58.19578755 364.92911755 58.20018864 354.54491973 C58.20294918 348.06407257 58.20718617 341.5832269 58.21169281 335.10238075 C58.22388656 317.16749636 58.23418584 299.23261317 58.2375679 281.29772472 C58.23778747 280.14940629 58.23800703 279.00108786 58.23823325 277.8179719 C58.23845153 276.66686914 58.23866981 275.51576638 58.2388947 274.32978171 C58.23933817 271.99711684 58.23978473 269.66445198 58.24023438 267.33178711 C58.24056652 265.59615486 58.24056652 265.59615486 58.24090537 263.82545934 C58.24485463 245.07029227 58.26231206 226.31516402 58.2855939 207.56001195 C58.30929054 188.31577526 58.32176897 169.07155808 58.32293582 149.82730657 C58.3238535 139.01775042 58.3296293 128.20824486 58.34775543 117.39870262 C58.36313363 108.19531303 58.36829037 98.99198967 58.36001733 89.78858968 C58.35610279 85.09118252 58.35707952 80.3939088 58.37107468 75.69651794 C58.38376543 71.39771297 58.38265875 67.09914238 58.37048396 62.80033795 C58.36851857 61.24380136 58.37164407 59.68724843 58.38032833 58.13073482 C58.39137803 56.01668653 58.38396366 53.9034717 58.3719368 51.78944683 C58.37283243 50.02732578 58.37283243 50.02732578 58.37374616 48.22960633 C57.83195944 43.54793192 56.17504929 40.24456557 52.953125 36.83203125 C48.77736298 34.24151222 44.45463911 33.02896594 39.75 31.6875 C38.75524658 31.39407715 37.76049316 31.1006543 36.7355957 30.79833984 C27.81594641 28.18483333 18.86174341 25.68427939 9.89941406 23.22143555 C8.39266113 22.80631714 8.39266113 22.80631714 6.85546875 22.3828125 C5.96496826 22.13934082 5.07446777 21.89586914 4.15698242 21.64501953 C2 21 2 21 0 20 C0 13.4 0 6.8 0 0 Z " fill="#4CAF50" transform="translate(17,17)"/>
    <path d="M0 0 C1.21300781 0.02964844 2.42601562 0.05929687 3.67578125 0.08984375 C8.06075921 0.30936035 11.27114667 0.64958974 15.25 2.5625 C17.67804627 5.94442159 17.41818253 9.00741556 17 13 C16.29091362 15.85383267 15.28612405 18.5629881 14.25 21.3125 C11.93797647 27.82571455 10.08855966 34.29317672 8.6875 41.0625 C8.52862305 41.82280518 8.36974609 42.58311035 8.20605469 43.36645508 C6.62005418 51.33044332 5.95341709 59.23834509 5.5703125 67.33984375 C5.53374039 68.11074844 5.49716827 68.88165314 5.45948792 69.67591858 C5.30885557 72.89316973 5.15929206 76.11035187 5.02587891 79.32836914 C4.65265421 88.19017993 4.0328485 96.91230153 2.59375 105.671875 C2.41889572 106.744589 2.41889572 106.744589 2.24050903 107.838974 C-1.73859134 130.38329897 -15.57294622 147.98680703 -33.75 161.3125 C-56.15261371 176.98993816 -82.99589549 183.02773293 -110 180 C-109.43992912 175.86479108 -108.51100739 172.44732334 -106.77734375 168.65625 C-106.32464111 167.66302734 -105.87193848 166.66980469 -105.40551758 165.64648438 C-104.92107178 164.60814453 -104.43662598 163.56980469 -103.9375 162.5 C-103.44596436 161.43587891 -102.95442871 160.37175781 -102.44799805 159.27539062 C-98.69820895 151.25796992 -94.63371057 143.54139715 -90 136 C-83.44328736 136.88263439 -83.44328736 136.88263439 -80.94921875 137.54296875 C-65.46045455 141.17460284 -48.71147788 135.09799141 -35.1953125 128 C-32.26740115 126.16737089 -30.62751874 125.006977 -29 122 C-29.07025845 118.55733615 -29.39909176 116.71646751 -31.625 114.0625 C-35.06230764 112.52475711 -37.5294735 112.85772239 -41 114 C-42.93294834 114.92505385 -44.84834102 115.88722118 -46.75 116.875 C-57.09754996 122.21567095 -66.33841501 123.82503731 -78 123 C-78.66 122.67 -79.32 122.34 -80 122 C-78.30979124 116.82567993 -75.24762902 112.62808127 -72.1875 108.1875 C-71.61870117 107.35742432 -71.04990234 106.52734863 -70.46386719 105.67211914 C-65.48000369 98.49773418 -60.08593035 91.72495043 -54.484375 85.02734375 C-52.05548061 82.29570973 -52.05548061 82.29570973 -51 80 C-48.2986182 80.47671444 -45.83318789 81.06065895 -43.25 82 C-33.79517276 84.90917761 -24.49030707 84.23334525 -15.3125 80.5 C-12.89278637 79.20808951 -12.89278637 79.20808951 -12 77 C-11.61672964 73.47391271 -11.62221389 71.61390244 -13.5 68.5625 C-16.48937308 66.69414182 -17.98608378 66.9998758 -21.36328125 67.63671875 C-24.90965077 68.12532966 -28.4285226 68.09098803 -32 68.0625 C-32.68360596 68.05831055 -33.36721191 68.05412109 -34.0715332 68.04980469 C-35.71439196 68.0373257 -37.35720665 68.01925148 -39 68 C-37.66000502 64.993182 -36.20154709 63.00237391 -33.8125 60.75 C-31.28403411 58.29973408 -28.91244124 55.80167949 -26.625 53.125 C-23.22298983 49.16629725 -19.56016313 45.52124345 -15.8203125 41.8828125 C-13.50541787 39.48843651 -13.0499337 38.45939008 -12.6875 35.125 C-12.76553768 31.96050902 -12.76553768 31.96050902 -14.5625 29.5625 C-17.28316816 27.81848195 -18.79692825 27.64114249 -21.96020508 28.1862793 C-26.54317702 30.0145313 -29.73987281 34.10562007 -33.0625 37.625 C-34.22749023 38.81802734 -34.22749023 38.81802734 -35.41601562 40.03515625 C-38.89566219 43.62381799 -42.27059687 47.26690302 -45.49609375 51.0859375 C-46.32238281 52.04757812 -47.14867187 53.00921875 -48 54 C-48.33 54 -48.66 54 -49 54 C-49.23677492 48.19901442 -48.69136242 43.60263801 -47 38 C-46.56305137 34.28593668 -46.50161318 32.7284115 -48.625 29.625 C-51.6511254 27.55449315 -53.39827068 27.61683731 -57 28 C-58.485 28.495 -58.485 28.495 -60 29 C-60.9944551 31.1924257 -60.9944551 31.1924257 -61.625 33.8125 C-61.86476563 34.68519531 -62.10453125 35.55789063 -62.3515625 36.45703125 C-62.56554687 37.29621094 -62.77953125 38.13539063 -63 39 C-63.17490967 39.62680664 -63.34981934 40.25361328 -63.5300293 40.89941406 C-64.34590889 44.54607796 -64.18451033 48.21536558 -64.1875 51.9375 C-64.19974609 52.73607422 -64.21199219 53.53464844 -64.22460938 54.35742188 C-64.23574033 58.83577473 -63.67419885 61.82509907 -62 66 C-62.1874037 71.11344373 -63.86853102 73.51947616 -67.25 77.25 C-71.7288564 82.35202323 -75.79225265 87.67223176 -79.75 93.1875 C-80.28012695 93.92323242 -80.81025391 94.65896484 -81.35644531 95.41699219 C-84.61647509 99.97452602 -87.71973232 104.6027699 -90.71191406 109.34106445 C-91.13698242 109.88851318 -91.56205078 110.43596191 -92 111 C-92.66 111 -93.32 111 -94 111 C-97.9862659 99.70867008 -99.7657392 89.88134836 -98.6328125 77.94140625 C-98.5397583 76.87394165 -98.5397583 76.87394165 -98.44482422 75.78491211 C-98.31683228 74.36593383 -98.17055615 72.94846374 -98.00439453 71.53344727 C-97.69862869 68.07388891 -97.70731923 66.39830035 -99.796875 63.5546875 C-102.77262324 61.45478006 -104.43187414 61.40531236 -108 62 C-110.83087285 64.18082057 -111.87910165 65.55746643 -112.828125 69.03125 C-114.96372773 86.59065025 -114.61488089 104.06369059 -106 120 C-105.24589844 120.81082031 -104.49179687 121.62164062 -103.71484375 122.45703125 C-102 125 -102 125 -102.49609375 127.86328125 C-104.19486692 131.40643672 -106.06587652 134.80718788 -108.0625 138.1875 C-111.64441547 144.39345386 -114.88675488 150.70411792 -117.9375 157.1875 C-118.31463135 157.98889404 -118.6917627 158.79028809 -119.08032227 159.6159668 C-120.82956618 163.37220019 -122.51799504 167.12816504 -124 171 C-137.69079926 158.96869156 -145.82510274 137.87003213 -148 120 C-149.63764977 90.67266722 -140.73781917 65.70679652 -121.29541016 43.71313477 C-119.87206153 42.13412862 -118.43693223 40.56662901 -117 39 C-116.40832031 38.32582031 -115.81664062 37.65164063 -115.20703125 36.95703125 C-86.55643127 5.94956958 -40.04108215 -1.19793108 0 0 Z " fill="#4CAF50" transform="translate(472,315)"/>
</svg>
